# xmcd CD database file
#
# Track frame offsets:
#	150
#	17052
#	35983
#	52383
#	67178
#	80710
#	100900
#	119230
#	137910
#	155311
#	171152
#	187408
#
# Disc length: 2682 seconds
#
# Revision: 0
# Processed by: cddbd v1.5.1PL0 Copyright (c) Steve Scherf et al.
# Submitted via: CDex 1.51
#
DISCID=c20a780c
DTITLE=Marco Gottardi - Wild And Groovy
DYEAR=2000
DGENRE=Country
TTITLE0=Little By Little
TTITLE1=Words Are Not Enough
TTITLE2=If You Wanna Do It
TTITLE3=Music Is My Best Friend
TTITLE4=Second-Hand-Love
TTITLE5=She Doesn't Even Know
TTITLE6=Wild And Groofy
TTITLE7=An Angel For Someone
TTITLE8=Secret In Your Heart
TTITLE9=Don't Kiss A Stanger
TTITLE10=I'm The Man Next Door To You
TTITLE11=The End Of The Rainbow
EXTD=YEAR: 2000
EXTT0=
EXTT1=
EXTT2=
EXTT3=
EXTT4=
EXTT5=
EXTT6=
EXTT7=
EXTT8=
EXTT9=
EXTT10=
EXTT11=
PLAYORDER=
